<?xml version="1.0" encoding="UTF-8" standalone="no"?>
<!DOCTYPE svg PUBLIC "-//W3C//DTD SVG 1.1//EN"
 "http://www.w3.org/Graphics/SVG/1.1/DTD/svg11.dtd">
<!-- Generated by graphviz version 2.50.0 (20211209.0339)
 -->
<!-- Pages: 1 -->
<svg width="1383pt" height="249pt"
 viewBox="0.00 0.00 1383.28 248.91" xmlns="http://www.w3.org/2000/svg" xmlns:xlink="http://www.w3.org/1999/xlink">
<g id="graph0" class="graph" transform="scale(1 1) rotate(0) translate(4 244.91)">
<polygon fill="white" stroke="transparent" points="-4,4 -4,-244.91 1379.28,-244.91 1379.28,4 -4,4"/>
<g id="clust1" class="cluster">
<title>cluster10 x 10</title>
<path fill="none" stroke="black" d="M20,-129.93C20,-129.93 66,-129.93 66,-129.93 72,-129.93 78,-135.93 78,-141.93 78,-141.93 78,-209.93 78,-209.93 78,-215.93 72,-221.93 66,-221.93 66,-221.93 20,-221.93 20,-221.93 14,-221.93 8,-215.93 8,-209.93 8,-209.93 8,-141.93 8,-141.93 8,-135.93 14,-129.93 20,-129.93"/>
<text text-anchor="middle" x="43" y="-137.73" font-family="Times,serif" font-size="14.00">10 x 10</text>
</g>
<g id="clust2" class="cluster">
<title>cluster10</title>
<path fill="none" stroke="black" d="M98,-8C98,-8 1241,-8 1241,-8 1247,-8 1253,-14 1253,-20 1253,-20 1253,-220.91 1253,-220.91 1253,-226.91 1247,-232.91 1241,-232.91 1241,-232.91 98,-232.91 98,-232.91 92,-232.91 86,-226.91 86,-220.91 86,-220.91 86,-20 86,-20 86,-14 92,-8 98,-8"/>
<text text-anchor="middle" x="1235.5" y="-15.8" font-family="Times,serif" font-size="14.00">10</text>
</g>
<!-- obs -->
<g id="node1" class="node">
<title>obs</title>
<path fill="lightgrey" stroke="black" d="M58,-213.93C58,-213.93 28,-213.93 28,-213.93 22,-213.93 16,-207.93 16,-201.93 16,-201.93 16,-172.93 16,-172.93 16,-166.93 22,-160.93 28,-160.93 28,-160.93 58,-160.93 58,-160.93 64,-160.93 70,-166.93 70,-172.93 70,-172.93 70,-201.93 70,-201.93 70,-207.93 64,-213.93 58,-213.93"/>
<text text-anchor="middle" x="43" y="-198.73" font-family="Times,serif" font-size="14.00">obs</text>
<text text-anchor="middle" x="43" y="-183.73" font-family="Times,serif" font-size="14.00">~</text>
<text text-anchor="middle" x="43" y="-168.73" font-family="Times,serif" font-size="14.00">Data</text>
</g>
<!-- obs_4 -->
<g id="node2" class="node">
<title>obs_4</title>
<ellipse fill="lightgrey" stroke="black" cx="377" cy="-76.48" rx="49.49" ry="37.45"/>
<text text-anchor="middle" x="377" y="-87.78" font-family="Times,serif" font-size="14.00">obs_4</text>
<text text-anchor="middle" x="377" y="-72.78" font-family="Times,serif" font-size="14.00">~</text>
<text text-anchor="middle" x="377" y="-57.78" font-family="Times,serif" font-size="14.00">Normal</text>
</g>
<!-- obs_7 -->
<g id="node3" class="node">
<title>obs_7</title>
<ellipse fill="lightgrey" stroke="black" cx="494" cy="-76.48" rx="49.49" ry="37.45"/>
<text text-anchor="middle" x="494" y="-87.78" font-family="Times,serif" font-size="14.00">obs_7</text>
<text text-anchor="middle" x="494" y="-72.78" font-family="Times,serif" font-size="14.00">~</text>
<text text-anchor="middle" x="494" y="-57.78" font-family="Times,serif" font-size="14.00">Normal</text>
</g>
<!-- obs_5 -->
<g id="node4" class="node">
<title>obs_5</title>
<ellipse fill="lightgrey" stroke="black" cx="611" cy="-76.48" rx="49.49" ry="37.45"/>
<text text-anchor="middle" x="611" y="-87.78" font-family="Times,serif" font-size="14.00">obs_5</text>
<text text-anchor="middle" x="611" y="-72.78" font-family="Times,serif" font-size="14.00">~</text>
<text text-anchor="middle" x="611" y="-57.78" font-family="Times,serif" font-size="14.00">Normal</text>
</g>
<!-- obs_6 -->
<g id="node5" class="node">
<title>obs_6</title>
<ellipse fill="lightgrey" stroke="black" cx="728" cy="-76.48" rx="49.49" ry="37.45"/>
<text text-anchor="middle" x="728" y="-87.78" font-family="Times,serif" font-size="14.00">obs_6</text>
<text text-anchor="middle" x="728" y="-72.78" font-family="Times,serif" font-size="14.00">~</text>
<text text-anchor="middle" x="728" y="-57.78" font-family="Times,serif" font-size="14.00">Normal</text>
</g>
<!-- obs_8 -->
<g id="node6" class="node">
<title>obs_8</title>
<ellipse fill="lightgrey" stroke="black" cx="845" cy="-76.48" rx="49.49" ry="37.45"/>
<text text-anchor="middle" x="845" y="-87.78" font-family="Times,serif" font-size="14.00">obs_8</text>
<text text-anchor="middle" x="845" y="-72.78" font-family="Times,serif" font-size="14.00">~</text>
<text text-anchor="middle" x="845" y="-57.78" font-family="Times,serif" font-size="14.00">Normal</text>
</g>
<!-- obs_9 -->
<g id="node7" class="node">
<title>obs_9</title>
<ellipse fill="lightgrey" stroke="black" cx="962" cy="-76.48" rx="49.49" ry="37.45"/>
<text text-anchor="middle" x="962" y="-87.78" font-family="Times,serif" font-size="14.00">obs_9</text>
<text text-anchor="middle" x="962" y="-72.78" font-family="Times,serif" font-size="14.00">~</text>
<text text-anchor="middle" x="962" y="-57.78" font-family="Times,serif" font-size="14.00">Normal</text>
</g>
<!-- obs_2 -->
<g id="node8" class="node">
<title>obs_2</title>
<ellipse fill="lightgrey" stroke="black" cx="1079" cy="-76.48" rx="49.49" ry="37.45"/>
<text text-anchor="middle" x="1079" y="-87.78" font-family="Times,serif" font-size="14.00">obs_2</text>
<text text-anchor="middle" x="1079" y="-72.78" font-family="Times,serif" font-size="14.00">~</text>
<text text-anchor="middle" x="1079" y="-57.78" font-family="Times,serif" font-size="14.00">Normal</text>
</g>
<!-- obs_1 -->
<g id="node9" class="node">
<title>obs_1</title>
<ellipse fill="lightgrey" stroke="black" cx="1196" cy="-76.48" rx="49.49" ry="37.45"/>
<text text-anchor="middle" x="1196" y="-87.78" font-family="Times,serif" font-size="14.00">obs_1</text>
<text text-anchor="middle" x="1196" y="-72.78" font-family="Times,serif" font-size="14.00">~</text>
<text text-anchor="middle" x="1196" y="-57.78" font-family="Times,serif" font-size="14.00">Normal</text>
</g>
<!-- μ -->
<g id="node10" class="node">
<title>μ</title>
<ellipse fill="none" stroke="black" cx="669" cy="-187.43" rx="49.49" ry="37.45"/>
<text text-anchor="middle" x="669" y="-198.73" font-family="Times,serif" font-size="14.00">μ</text>
<text text-anchor="middle" x="669" y="-183.73" font-family="Times,serif" font-size="14.00">~</text>
<text text-anchor="middle" x="669" y="-168.73" font-family="Times,serif" font-size="14.00">Normal</text>
</g>
<!-- μ&#45;&gt;obs_4 -->
<g id="edge10" class="edge">
<title>μ&#45;&gt;obs_4</title>
<path fill="none" stroke="black" d="M621.75,-175.47C573.75,-163.48 497.87,-142.15 436,-113.95 431.39,-111.85 426.71,-109.46 422.09,-106.92"/>
<polygon fill="black" stroke="black" points="423.77,-103.85 413.35,-101.92 420.29,-109.92 423.77,-103.85"/>
</g>
<!-- μ&#45;&gt;obs_7 -->
<g id="edge16" class="edge">
<title>μ&#45;&gt;obs_7</title>
<path fill="none" stroke="black" d="M631.03,-162.79C604.34,-146.17 568.47,-123.84 540.13,-106.2"/>
<polygon fill="black" stroke="black" points="541.94,-103.2 531.6,-100.88 538.24,-109.14 541.94,-103.2"/>
</g>
<!-- μ&#45;&gt;obs_5 -->
<g id="edge12" class="edge">
<title>μ&#45;&gt;obs_5</title>
<path fill="none" stroke="black" d="M650.81,-152.26C645.46,-142.22 639.55,-131.1 633.95,-120.58"/>
<polygon fill="black" stroke="black" points="636.92,-118.71 629.13,-111.53 630.74,-122 636.92,-118.71"/>
</g>
<!-- μ&#45;&gt;obs_6 -->
<g id="edge14" class="edge">
<title>μ&#45;&gt;obs_6</title>
<path fill="none" stroke="black" d="M687.34,-152.55C692.89,-142.31 699.06,-130.92 704.88,-120.17"/>
<polygon fill="black" stroke="black" points="707.98,-121.79 709.67,-111.33 701.83,-118.46 707.98,-121.79"/>
</g>
<!-- μ&#45;&gt;obs_8 -->
<g id="edge18" class="edge">
<title>μ&#45;&gt;obs_8</title>
<path fill="none" stroke="black" d="M706.76,-163.06C733.67,-146.4 770.01,-123.9 798.67,-106.15"/>
<polygon fill="black" stroke="black" points="800.65,-109.05 807.31,-100.81 796.96,-103.1 800.65,-109.05"/>
</g>
<!-- μ&#45;&gt;obs_9 -->
<g id="edge20" class="edge">
<title>μ&#45;&gt;obs_9</title>
<path fill="none" stroke="black" d="M716.01,-175.61C764.19,-163.67 840.68,-142.31 903,-113.95 907.61,-111.86 912.3,-109.46 916.91,-106.93"/>
<polygon fill="black" stroke="black" points="918.72,-109.93 925.65,-101.92 915.24,-103.85 918.72,-109.93"/>
</g>
<!-- μ&#45;&gt;obs_2 -->
<g id="edge6" class="edge">
<title>μ&#45;&gt;obs_2</title>
<path fill="none" stroke="black" d="M717.95,-181.78C787.23,-174 916.95,-154.96 1020,-113.95 1024.7,-112.08 1029.46,-109.84 1034.11,-107.4"/>
<polygon fill="black" stroke="black" points="1035.87,-110.43 1042.91,-102.51 1032.47,-104.31 1035.87,-110.43"/>
</g>
<!-- μ&#45;&gt;obs_1 -->
<g id="edge4" class="edge">
<title>μ&#45;&gt;obs_1</title>
<path fill="none" stroke="black" d="M718.43,-185.2C805.61,-181.63 991.23,-167.78 1137,-113.95 1141.82,-112.17 1146.67,-109.98 1151.41,-107.55"/>
<polygon fill="black" stroke="black" points="1153.26,-110.52 1160.35,-102.64 1149.9,-104.38 1153.26,-110.52"/>
</g>
<!-- obs_0 -->
<g id="node11" class="node">
<title>obs_0</title>
<ellipse fill="lightgrey" stroke="black" cx="143" cy="-76.48" rx="49.49" ry="37.45"/>
<text text-anchor="middle" x="143" y="-87.78" font-family="Times,serif" font-size="14.00">obs_0</text>
<text text-anchor="middle" x="143" y="-72.78" font-family="Times,serif" font-size="14.00">~</text>
<text text-anchor="middle" x="143" y="-57.78" font-family="Times,serif" font-size="14.00">Normal</text>
</g>
<!-- μ&#45;&gt;obs_0 -->
<g id="edge2" class="edge">
<title>μ&#45;&gt;obs_0</title>
<path fill="none" stroke="black" d="M619.33,-185.16C532.19,-181.55 347.27,-167.62 202,-113.95 197.18,-112.17 192.33,-109.97 187.59,-107.54"/>
<polygon fill="black" stroke="black" points="189.11,-104.38 178.66,-102.64 185.74,-110.52 189.11,-104.38"/>
</g>
<!-- obs_3 -->
<g id="node12" class="node">
<title>obs_3</title>
<ellipse fill="lightgrey" stroke="black" cx="260" cy="-76.48" rx="49.49" ry="37.45"/>
<text text-anchor="middle" x="260" y="-87.78" font-family="Times,serif" font-size="14.00">obs_3</text>
<text text-anchor="middle" x="260" y="-72.78" font-family="Times,serif" font-size="14.00">~</text>
<text text-anchor="middle" x="260" y="-57.78" font-family="Times,serif" font-size="14.00">Normal</text>
</g>
<!-- μ&#45;&gt;obs_3 -->
<g id="edge8" class="edge">
<title>μ&#45;&gt;obs_3</title>
<path fill="none" stroke="black" d="M619.9,-181.73C550.74,-173.89 421.62,-154.82 319,-113.95 314.3,-112.08 309.55,-109.84 304.89,-107.4"/>
<polygon fill="black" stroke="black" points="306.54,-104.31 296.09,-102.51 303.14,-110.43 306.54,-104.31"/>
</g>
<!-- σ -->
<g id="node13" class="node">
<title>σ</title>
<ellipse fill="none" stroke="black" cx="1318" cy="-187.43" rx="57.05" ry="37.45"/>
<text text-anchor="middle" x="1318" y="-198.73" font-family="Times,serif" font-size="14.00">σ</text>
<text text-anchor="middle" x="1318" y="-183.73" font-family="Times,serif" font-size="14.00">~</text>
<text text-anchor="middle" x="1318" y="-168.73" font-family="Times,serif" font-size="14.00">Constant</text>
</g>
<!-- σ&#45;&gt;obs_4 -->
<g id="edge9" class="edge">
<title>σ&#45;&gt;obs_4</title>
<path fill="none" stroke="black" d="M1291.36,-153.88C1281.64,-144.35 1269.85,-135.11 1257,-129.93 1172.38,-95.81 523.52,-139.75 436,-113.95 431,-112.48 426.01,-110.46 421.16,-108.13"/>
<polygon fill="black" stroke="black" points="422.53,-104.89 412.05,-103.31 419.25,-111.08 422.53,-104.89"/>
</g>
<!-- σ&#45;&gt;obs_7 -->
<g id="edge15" class="edge">
<title>σ&#45;&gt;obs_7</title>
<path fill="none" stroke="black" d="M1291.35,-153.9C1281.63,-144.38 1269.84,-135.13 1257,-129.93 1184.48,-100.55 628.02,-136.19 553,-113.95 548,-112.47 543.01,-110.45 538.17,-108.11"/>
<polygon fill="black" stroke="black" points="539.53,-104.88 529.06,-103.28 536.26,-111.06 539.53,-104.88"/>
</g>
<!-- σ&#45;&gt;obs_5 -->
<g id="edge11" class="edge">
<title>σ&#45;&gt;obs_5</title>
<path fill="none" stroke="black" d="M1291.34,-153.94C1281.62,-144.42 1269.83,-135.16 1257,-129.93 1196.58,-105.3 732.51,-132.64 670,-113.95 665.01,-112.46 660.02,-110.43 655.17,-108.09"/>
<polygon fill="black" stroke="black" points="656.54,-104.85 646.07,-103.26 653.26,-111.04 656.54,-104.85"/>
</g>
<!-- σ&#45;&gt;obs_6 -->
<g id="edge13" class="edge">
<title>σ&#45;&gt;obs_6</title>
<path fill="none" stroke="black" d="M1291.32,-153.99C1281.6,-144.47 1269.81,-135.21 1257,-129.93 1160.36,-90.15 887.03,-144.22 787,-113.95 782.01,-112.44 777.03,-110.4 772.18,-108.05"/>
<polygon fill="black" stroke="black" points="773.55,-104.82 763.08,-103.21 770.27,-111 773.55,-104.82"/>
</g>
<!-- σ&#45;&gt;obs_8 -->
<g id="edge17" class="edge">
<title>σ&#45;&gt;obs_8</title>
<path fill="none" stroke="black" d="M1291.28,-154.07C1281.56,-144.56 1269.78,-135.28 1257,-129.93 1184.56,-99.63 979.03,-137.12 904,-113.95 899.02,-112.42 894.04,-110.36 889.2,-108"/>
<polygon fill="black" stroke="black" points="890.57,-104.76 880.1,-103.14 887.28,-110.94 890.57,-104.76"/>
</g>
<!-- σ&#45;&gt;obs_9 -->
<g id="edge19" class="edge">
<title>σ&#45;&gt;obs_9</title>
<path fill="none" stroke="black" d="M1291.21,-154.24C1281.48,-144.74 1269.72,-135.42 1257,-129.93 1160.47,-88.28 1121.1,-146.09 1021,-113.95 1016.04,-112.36 1011.07,-110.26 1006.24,-107.88"/>
<polygon fill="black" stroke="black" points="1007.61,-104.65 997.15,-103 1004.3,-110.81 1007.61,-104.65"/>
</g>
<!-- σ&#45;&gt;obs_2 -->
<g id="edge5" class="edge">
<title>σ&#45;&gt;obs_2</title>
<path fill="none" stroke="black" d="M1290.69,-154.43C1281,-145.06 1269.41,-135.77 1257,-129.93 1208.73,-107.19 1188.24,-131.93 1138,-113.95 1133.16,-112.22 1128.3,-110.06 1123.55,-107.65"/>
<polygon fill="black" stroke="black" points="1125.06,-104.48 1114.61,-102.77 1121.71,-110.63 1125.06,-104.48"/>
</g>
<!-- σ&#45;&gt;obs_1 -->
<g id="edge3" class="edge">
<title>σ&#45;&gt;obs_1</title>
<path fill="none" stroke="black" d="M1285.91,-156.3C1276.65,-147.71 1266.48,-138.39 1257,-129.93 1250.41,-124.05 1243.35,-117.87 1236.46,-111.9"/>
<polygon fill="black" stroke="black" points="1238.34,-108.9 1228.48,-105.02 1233.77,-114.2 1238.34,-108.9"/>
</g>
<!-- σ&#45;&gt;obs_0 -->
<g id="edge1" class="edge">
<title>σ&#45;&gt;obs_0</title>
<path fill="none" stroke="black" d="M1291.37,-153.85C1281.66,-144.32 1269.86,-135.08 1257,-129.93 1202.59,-108.13 258.26,-130.4 202,-113.95 197,-112.49 192,-110.48 187.15,-108.15"/>
<polygon fill="black" stroke="black" points="188.52,-104.91 178.05,-103.33 185.25,-111.1 188.52,-104.91"/>
</g>
<!-- σ&#45;&gt;obs_3 -->
<g id="edge7" class="edge">
<title>σ&#45;&gt;obs_3</title>
<path fill="none" stroke="black" d="M1291.37,-153.86C1281.65,-144.33 1269.86,-135.1 1257,-129.93 1160.28,-91.07 419.02,-143.3 319,-113.95 314,-112.49 309.01,-110.47 304.16,-108.14"/>
<polygon fill="black" stroke="black" points="305.52,-104.91 295.05,-103.32 302.25,-111.09 305.52,-104.91"/>
</g>
</g>
</svg>
